<svg width="54" height="82" viewBox="0 0 54 82" fill="none" xmlns="http://www.w3.org/2000/svg">
<path d="M52.8828 49.254C48.7617 31.84 26.5818 0 26.5818 0C26.5818 0 2.97681 34.367 0.257812 51.223C0.0898415 52.2542 9.54732e-07 53.2191 9.54732e-07 54.1058C-0.00390605 69.5118 11.984 82.0008 26.77 82.0008C41.556 82.0008 53.54 69.5128 53.54 54.1058C53.5439 52.6722 53.3086 51.0392 52.8828 49.254ZM26.6058 8.746C31.6488 16.4569 40.2468 30.23 45.1138 41.586C43.9263 41.4454 42.645 41.3672 41.2466 41.3672C32.856 41.3672 28.3246 44.2656 24.6876 46.5938C21.461 48.6602 18.9103 50.293 13.3596 50.293C10.0158 50.293 7.75411 49.6954 5.78541 48.7775C8.98461 37.5045 19.6178 19.586 26.6058 8.746Z" fill="black"/>
</svg>
